# xmcd
#
# Track frame offsets:
# 150
# 20218
# 36888
# 53678
# 68083
# 85622
# 98902
# 117197
# 130785
# 149970
#
# Disc length: 2202 seconds
#
#
# Revision: 2
# Processed by: cddbd v1.5.2PL0 Copyright (c) Steve Scherf et al.
# Submitted via: FreeRIP 2.942 
#
DISCID=8b08980a
DTITLE=Lisa Ono - [Romance Latino Vol.2] ~Baladas romanticas al ritmo de Bossanova~
DYEAR=2005
DGENRE=Bossa Nova
TTITLE0=Historia De Un Amor
TTITLE1=Eclipse
TTITLE2=Drume Negrita
TTITLE3=Sabor A Mi
TTITLE4=Aquellos Ojos Verdes/Green Eyes
TTITLE5=Esta Tarde Vi Llover
TTITLE6=Solamente Una Vez
TTITLE7=Acalanto De Amor
TTITLE8=Tu Mi Delirio
TTITLE9=Siempre En Mi Corazon
EXTD=YEAR: 2005
EXTT0=
EXTT1=
EXTT2=
EXTT3=
EXTT4=
EXTT5=
EXTT6=
EXTT7=
EXTT8=
EXTT9=
PLAYORDER=
